<svg id="Layer_1" data-name="Layer 1" xmlns="http://www.w3.org/2000/svg" viewBox="0 0 574 574"><defs><style>.cls-1{fill:#093c56;}.cls-2,.cls-5{fill:none;}.cls-2{stroke:#fff;}.cls-2,.cls-3,.cls-4,.cls-5,.cls-6{stroke-miterlimit:10;}.cls-3{fill:#061f30;stroke-width:1.8px;}.cls-3,.cls-5{stroke:#000;}.cls-4{fill:#146591;stroke:#15a5e5;stroke-width:0.36px;}.cls-5{stroke-width:1.15px;}.cls-6{fill:#fff;stroke:#062c44;}</style></defs><title>Logo w Contrast</title><circle class="cls-1" cx="287" cy="287" r="287"/><circle class="cls-2" cx="286.78" cy="286" r="280.75"/><path class="cls-3" d="M524.83,547.2l211-97v66l-199,94,1,61,199-91-1,196-211,98v-65l197-93,1-64-198,93S525.21,546.82,524.83,547.2Z" transform="translate(-335.83 -345.2)"/><polygon class="cls-4" points="152 138 364 40 364 108 165 200 165 263 363 170 363 239 167 329 167 391 363 300 363 368 152 465 152 138"/><line class="cls-5" x1="400" y1="106" x2="362" y2="40"/><polyline class="cls-5" points="369.53 118.3 400 171 363 107 368.49 116.5"/><line class="cls-5" x1="368.49" y1="116.5" x2="369.53" y2="118.3"/><polygon class="cls-6" points="363 39 400 106 400 171 362 105 363 39"/></svg>